<svg width="40" height="40" xmlns="http://www.w3.org/2000/svg">

 <g>
  <title>background</title>
  <rect fill="none" id="canvas_background" height="402" width="582" y="-1" x="-1"/>
 </g>
 <g>
  <title>Layer 1</title>
  <path id="svg_4" fill="#000000" d="m20,2c9.924999,0 18,8.075 18,18s-8.075001,18 -18,18c-9.925,0 -18,-8.075001 -18,-18s8.075,-18 18,-18m0,-2c-11.047,0 -20,8.954 -20,20c0,11.047001 8.953,20 20,20c11.045,0 20,-8.952999 20,-20c0,-11.046 -8.955,-20 -20,-20l0,0z"/>
  <path id="svg_6" fill="#000000" d="m25.221001,30.41c-1.947001,0.939001 -3.76,1.275 -6.078001,1.275c-5.540999,0 -10.342,-3.994999 -10.342,-10.546c0,-6.85 4.902,-12.827 12.424001,-12.827c5.911999,0 9.975,4.097 9.975,9.705c0,4.969 -2.787001,7.990999 -6.18,7.990999c-1.477001,0 -2.652,-0.837999 -2.719,-2.754l-0.102001,0c-1.107,1.848 -2.618999,2.754 -4.5,2.754c-2.082,0 -3.728999,-1.611 -3.728999,-4.299c0,-4.128 3.158,-7.889999 7.926,-7.889999c1.479,0 2.957001,0.335999 3.83,0.773l-1.076,6.145c-0.402,2.25 -0.101999,3.291 0.908001,3.291c1.577999,0.068001 3.424,-1.982 3.424,-5.843c0,-4.634 -2.855,-8.025 -8.059,-8.025c-5.307,0 -9.842,4.13 -9.842,10.746c0,5.607 3.629,8.898001 8.598001,8.898001c1.813999,0 3.626999,-0.367001 4.970999,-1.109001l0.571001,1.715zm-2.451,-14.138c-0.336,-0.101999 -0.771,-0.202 -1.342001,-0.202c-2.552999,0 -4.567999,2.484001 -4.567999,5.339001c0,1.376999 0.639,2.316 1.880999,2.316c1.578001,0 3.088001,-2.016001 3.426001,-3.995001l0.603001,-3.458z"/>
 </g>
</svg>