<svg width="66" height="66" xmlns="http://www.w3.org/2000/svg">

 <title/>
 <g>
  <title>background</title>
  <rect fill="none" id="canvas_background" height="402" width="582" y="-1" x="-1"/>
 </g>
 <g>
  <title>Layer 1</title>
  <path id="svg_1" d="m1,34a32,32 0 1 0 32,-32a32,32 0 0 0 -32,32z"/>
  <path stroke-width="2px" stroke-linejoin="round" stroke-linecap="round" stroke="#ffffff" fill="#ffffff" id="svg_2" d="m34.93,40.84c1,-0.09 2.950001,-1.920002 4,-2a4,4 0 0 1 2.779999,0.799999l2.68,2l1.610001,1.279999a2.52,2.52 0 0 1 0.43,3.620003l-3.110001,4a1.12,1.12 0 0 1 -1,0.43c-13.5,-1.210003 -24.24,-12.260002 -24.24,-25.68a25,25 0 0 1 1,-7a0.66,0.66 0 0 1 0.5,-0.450001l5.91,-0.83a2.63,2.63 0 0 1 3.120001,2l0.389999,1.99l0.65,3.26a3.75,3.75 0 0 1 -0.529999,2.780001c-0.540001,0.839998 -3.09,1.679998 -3.640001,2.529999l0,0a19.389999,19.389999 0 0 0 9.450001,11.43l0,-0.16z" class="cls-1"/>
 </g>
</svg>